<svg width="700" height="400" xmlns="http://www.w3.org/2000/svg" xmlns:xlink="http://www.w3.org/1999/xlink"><g transform="translate(90,20)"><rect class="bar" width="1.7846153846153847" y="284.2622950819672" height="50.1639344262295"></rect><rect class="bar" width="14.276923076923078" y="228.52459016393442" height="50.1639344262295"></rect><rect class="bar" width="87.44615384615385" y="172.78688524590163" height="50.1639344262295"></rect><rect class="bar" width="96.36923076923077" y="117.04918032786885" height="50.1639344262295"></rect><rect class="bar" width="157.04615384615383" y="61.31147540983607" height="50.1639344262295"></rect><rect class="bar" width="580" y="5.5737704918032875" height="50.1639344262295"></rect><g transform="translate(0,340)" fill="none" font-size="10" font-family="sans-serif" text-anchor="middle"><path class="domain" stroke="currentColor" d="M0.5,6V0.5H580.5V6"></path><g class="tick" opacity="1" transform="translate(0.5,0)"><line stroke="currentColor" y2="6"></line><text fill="currentColor" y="9" dy="0.71em">0</text></g><g class="tick" opacity="1" transform="translate(89.73076923076924,0)"><line stroke="currentColor" y2="6"></line><text fill="currentColor" y="9" dy="0.71em">50</text></g><g class="tick" opacity="1" transform="translate(178.96153846153848,0)"><line stroke="currentColor" y2="6"></line><text fill="currentColor" y="9" dy="0.71em">100</text></g><g class="tick" opacity="1" transform="translate(268.1923076923077,0)"><line stroke="currentColor" y2="6"></line><text fill="currentColor" y="9" dy="0.71em">150</text></g><g class="tick" opacity="1" transform="translate(357.42307692307696,0)"><line stroke="currentColor" y2="6"></line><text fill="currentColor" y="9" dy="0.71em">200</text></g><g class="tick" opacity="1" transform="translate(446.6538461538462,0)"><line stroke="currentColor" y2="6"></line><text fill="currentColor" y="9" dy="0.71em">250</text></g><g class="tick" opacity="1" transform="translate(535.8846153846154,0)"><line stroke="currentColor" y2="6"></line><text fill="currentColor" y="9" dy="0.71em">300</text></g></g><g fill="none" font-size="10" font-family="sans-serif" text-anchor="end"><path class="domain" stroke="currentColor" d="M-6,340.5H0.5V0.5H-6"></path><g class="tick" opacity="1" transform="translate(0,309.34426229508193)"><line stroke="currentColor" x2="-6"></line><text fill="currentColor" x="-9" dy="0.32em">twicli.neocat.jp</text></g><g class="tick" opacity="1" transform="translate(0,253.60655737704917)"><line stroke="currentColor" x2="-6"></line><text fill="currentColor" x="-9" dy="0.32em">lib4dev.in</text></g><g class="tick" opacity="1" transform="translate(0,197.86885245901638)"><line stroke="currentColor" x2="-6"></line><text fill="currentColor" x="-9" dy="0.32em">t.co</text></g><g class="tick" opacity="1" transform="translate(0,142.1311475409836)"><line stroke="currentColor" x2="-6"></line><text fill="currentColor" x="-9" dy="0.32em">medium.com</text></g><g class="tick" opacity="1" transform="translate(0,86.39344262295083)"><line stroke="currentColor" x2="-6"></line><text fill="currentColor" x="-9" dy="0.32em">Google</text></g><g class="tick" opacity="1" transform="translate(0,30.65573770491804)"><line stroke="currentColor" x2="-6"></line><text fill="currentColor" x="-9" dy="0.32em">github.com</text></g></g></g></svg>