<svg width="700" height="400"><g transform="translate(90,20)" xmlns="http://www.w3.org/2000/svg" xmlns:xlink="http://www.w3.org/1999/xlink"><g transform="translate(0,340)" fill="none" font-size="10" font-family="sans-serif" text-anchor="middle"><path class="domain" stroke="currentColor" d="M0.5,6V0.5H580.5V6"></path><g class="tick" opacity="1" transform="translate(0.5,0)"><line stroke="currentColor" y2="6"></line><text fill="currentColor" y="9" dy="0.71em" style="text-anchor: end;">0</text></g><g class="tick" opacity="1" transform="translate(43.14705882352941,0)"><line stroke="currentColor" y2="6"></line><text fill="currentColor" y="9" dy="0.71em" style="text-anchor: end;">10</text></g><g class="tick" opacity="1" transform="translate(85.79411764705883,0)"><line stroke="currentColor" y2="6"></line><text fill="currentColor" y="9" dy="0.71em" style="text-anchor: end;">20</text></g><g class="tick" opacity="1" transform="translate(128.44117647058823,0)"><line stroke="currentColor" y2="6"></line><text fill="currentColor" y="9" dy="0.71em" style="text-anchor: end;">30</text></g><g class="tick" opacity="1" transform="translate(171.08823529411765,0)"><line stroke="currentColor" y2="6"></line><text fill="currentColor" y="9" dy="0.71em" style="text-anchor: end;">40</text></g><g class="tick" opacity="1" transform="translate(213.73529411764707,0)"><line stroke="currentColor" y2="6"></line><text fill="currentColor" y="9" dy="0.71em" style="text-anchor: end;">50</text></g><g class="tick" opacity="1" transform="translate(256.38235294117646,0)"><line stroke="currentColor" y2="6"></line><text fill="currentColor" y="9" dy="0.71em" style="text-anchor: end;">60</text></g><g class="tick" opacity="1" transform="translate(299.02941176470586,0)"><line stroke="currentColor" y2="6"></line><text fill="currentColor" y="9" dy="0.71em" style="text-anchor: end;">70</text></g><g class="tick" opacity="1" transform="translate(341.6764705882353,0)"><line stroke="currentColor" y2="6"></line><text fill="currentColor" y="9" dy="0.71em" style="text-anchor: end;">80</text></g><g class="tick" opacity="1" transform="translate(384.3235294117647,0)"><line stroke="currentColor" y2="6"></line><text fill="currentColor" y="9" dy="0.71em" style="text-anchor: end;">90</text></g><g class="tick" opacity="1" transform="translate(426.97058823529414,0)"><line stroke="currentColor" y2="6"></line><text fill="currentColor" y="9" dy="0.71em" style="text-anchor: end;">100</text></g><g class="tick" opacity="1" transform="translate(469.61764705882354,0)"><line stroke="currentColor" y2="6"></line><text fill="currentColor" y="9" dy="0.71em" style="text-anchor: end;">110</text></g><g class="tick" opacity="1" transform="translate(512.2647058823529,0)"><line stroke="currentColor" y2="6"></line><text fill="currentColor" y="9" dy="0.71em" style="text-anchor: end;">120</text></g><g class="tick" opacity="1" transform="translate(554.9117647058824,0)"><line stroke="currentColor" y2="6"></line><text fill="currentColor" y="9" dy="0.71em" style="text-anchor: end;">130</text></g></g><g fill="none" font-size="10" font-family="sans-serif" text-anchor="end"><path class="domain" stroke="currentColor" d="M-6,0.5H0.5V340.5H-6"></path><g class="tick" opacity="1" transform="translate(0,26.338028169014095)"><line stroke="currentColor" x2="-6"></line><text fill="currentColor" x="-9" dy="0.32em">lib4dev.in</text></g><g class="tick" opacity="1" transform="translate(0,74.22535211267606)"><line stroke="currentColor" x2="-6"></line><text fill="currentColor" x="-9" dy="0.32em">yandex.ru</text></g><g class="tick" opacity="1" transform="translate(0,122.11267605633803)"><line stroke="currentColor" x2="-6"></line><text fill="currentColor" x="-9" dy="0.32em">twicli.neocat.jp</text></g><g class="tick" opacity="1" transform="translate(0,170)"><line stroke="currentColor" x2="-6"></line><text fill="currentColor" x="-9" dy="0.32em">medium.com</text></g><g class="tick" opacity="1" transform="translate(0,217.88732394366195)"><line stroke="currentColor" x2="-6"></line><text fill="currentColor" x="-9" dy="0.32em">t.co</text></g><g class="tick" opacity="1" transform="translate(0,265.7746478873239)"><line stroke="currentColor" x2="-6"></line><text fill="currentColor" x="-9" dy="0.32em">Google</text></g><g class="tick" opacity="1" transform="translate(0,313.6619718309859)"><line stroke="currentColor" x2="-6"></line><text fill="currentColor" x="-9" dy="0.32em">github.com</text></g></g><rect x="0" y="4.788732394366207" width="4.264705882352941" height="43.098591549295776"></rect><rect x="0" y="52.676056338028175" width="4.264705882352941" height="43.098591549295776"></rect><rect x="0" y="100.56338028169014" width="4.264705882352941" height="43.098591549295776"></rect><rect x="0" y="148.45070422535213" width="72.5" height="43.098591549295776"></rect><rect x="0" y="196.33802816901408" width="174.85294117647058" height="43.098591549295776"></rect><rect x="0" y="244.22535211267603" width="196.1764705882353" height="43.098591549295776"></rect><rect x="0" y="292.11267605633805" width="580" height="43.098591549295776"></rect></g></svg>