<svg width="700" height="400" xmlns="http://www.w3.org/2000/svg" xmlns:xlink="http://www.w3.org/1999/xlink"><g transform="translate(90,20)"><rect class="bar" width="36.25" y="284.2622950819672" height="50.1639344262295" style="fill: #f4c63d; text-anchor: end;"></rect><rect class="bar" width="36.25" y="228.52459016393442" height="50.1639344262295" style="fill: #f4c63d; text-anchor: end;"></rect><rect class="bar" width="108.75" y="172.78688524590163" height="50.1639344262295" style="fill: #f4c63d; text-anchor: end;"></rect><rect class="bar" width="145" y="117.04918032786885" height="50.1639344262295" style="fill: #f4c63d; text-anchor: end;"></rect><rect class="bar" width="362.5" y="61.31147540983607" height="50.1639344262295" style="fill: #f4c63d; text-anchor: end;"></rect><rect class="bar" width="580" y="5.5737704918032875" height="50.1639344262295" style="fill: #f4c63d; text-anchor: end;"></rect><g transform="translate(0,340)" fill="none" font-size="10" font-family="sans-serif" text-anchor="middle"><path class="domain" stroke="currentColor" d="M0.5,6V0.5H580.5V6"></path><g class="tick" opacity="1" transform="translate(0.5,0)"><line stroke="currentColor" y2="6"></line><text fill="currentColor" y="9" dy="0.71em">0</text></g><g class="tick" opacity="1" transform="translate(73,0)"><line stroke="currentColor" y2="6"></line><text fill="currentColor" y="9" dy="0.71em">2</text></g><g class="tick" opacity="1" transform="translate(145.5,0)"><line stroke="currentColor" y2="6"></line><text fill="currentColor" y="9" dy="0.71em">4</text></g><g class="tick" opacity="1" transform="translate(218,0)"><line stroke="currentColor" y2="6"></line><text fill="currentColor" y="9" dy="0.71em">6</text></g><g class="tick" opacity="1" transform="translate(290.5,0)"><line stroke="currentColor" y2="6"></line><text fill="currentColor" y="9" dy="0.71em">8</text></g><g class="tick" opacity="1" transform="translate(363,0)"><line stroke="currentColor" y2="6"></line><text fill="currentColor" y="9" dy="0.71em">10</text></g><g class="tick" opacity="1" transform="translate(435.5,0)"><line stroke="currentColor" y2="6"></line><text fill="currentColor" y="9" dy="0.71em">12</text></g><g class="tick" opacity="1" transform="translate(508,0)"><line stroke="currentColor" y2="6"></line><text fill="currentColor" y="9" dy="0.71em">14</text></g><g class="tick" opacity="1" transform="translate(580.5,0)"><line stroke="currentColor" y2="6"></line><text fill="currentColor" y="9" dy="0.71em">16</text></g></g><g fill="none" font-size="10" font-family="sans-serif" text-anchor="end"><path class="domain" stroke="currentColor" d="M-6,340.5H0.5V0.5H-6"></path><g class="tick" opacity="1" transform="translate(0,309.34426229508193)"><line stroke="currentColor" x2="-6"></line><text fill="currentColor" x="-9" dy="0.32em">mydesi-cam.zproxy.org</text></g><g class="tick" opacity="1" transform="translate(0,253.60655737704917)"><line stroke="currentColor" x2="-6"></line><text fill="currentColor" x="-9" dy="0.32em">claude.ai</text></g><g class="tick" opacity="1" transform="translate(0,197.86885245901638)"><line stroke="currentColor" x2="-6"></line><text fill="currentColor" x="-9" dy="0.32em">gist.github.com</text></g><g class="tick" opacity="1" transform="translate(0,142.1311475409836)"><line stroke="currentColor" x2="-6"></line><text fill="currentColor" x="-9" dy="0.32em">xgirma.medium.com</text></g><g class="tick" opacity="1" transform="translate(0,86.39344262295083)"><line stroke="currentColor" x2="-6"></line><text fill="currentColor" x="-9" dy="0.32em">github.com</text></g><g class="tick" opacity="1" transform="translate(0,30.65573770491804)"><line stroke="currentColor" x2="-6"></line><text fill="currentColor" x="-9" dy="0.32em">Google</text></g></g></g></svg>